<svg xmlns="http://www.w3.org/2000/svg" viewBox="178 107 572 579" fill="#ffffff">
<g transform="translate(128,736) scale(0.07,-0.07)">
<path d="M6236 8629 c-181 -4 -340 -10 -353 -14 -13 -3 -29 -17 -35 -30 -10
-21 -6 -33 27 -87 75 -123 402 -615 413 -622 7 -4 197 -11 423 -16 226 -4 413
-11 416 -14 9 -9 -117 -143 -849 -897 -375 -388 -840 -869 -1033 -1069 -192
-201 -609 -635 -926 -965 -663 -691 -847 -889 -856 -924 -8 -33 5 -51 63 -84
53 -29 244 -93 387 -128 48 -12 87 -24 87 -28 0 -15 -173 -175 -260 -240 -208
-156 -418 -239 -720 -286 -69 -11 -121 -26 -153 -43 -31 -16 -103 -84 -205
-191 -86 -91 -274 -285 -417 -431 -277 -281 -309 -323 -284 -370 28 -51 123
-83 424 -145 131 -27 188 -44 250 -75 94 -45 174 -120 210 -195 35 -71 43
-146 59 -548 9 -195 20 -375 26 -400 7 -24 25 -61 41 -80 64 -77 360 -247 483
-276 57 -14 91 1 102 46 4 14 -3 144 -15 287 -12 144 -21 294 -21 335 l0 73
27 -7 c58 -14 93 -35 103 -60 5 -14 21 -133 35 -263 31 -292 42 -372 61 -440
14 -50 18 -55 67 -77 112 -51 313 -76 370 -46 50 26 54 54 67 416 6 160 14
304 18 320 8 28 12 30 64 33 l56 3 7 -38 c4 -20 10 -186 15 -368 5 -226 12
-338 20 -357 13 -27 61 -55 77 -45 5 3 63 13 128 22 192 27 259 63 285 153 17
60 38 223 55 437 9 110 19 218 23 240 7 39 8 40 69 54 35 8 65 12 68 10 2 -3
0 -93 -7 -200 -6 -107 -12 -265 -12 -352 -1 -157 -1 -159 24 -179 18 -15 33
-18 59 -14 65 10 325 147 445 234 89 65 92 85 116 688 5 144 15 286 21 315 34
160 157 279 344 335 51 16 100 18 335 19 l275 0 48 28 c48 29 167 146 299 297
119 136 239 282 266 322 39 60 29 117 -62 342 -43 104 -90 236 -106 293 -34
121 -54 282 -45 361 11 95 54 278 107 452 75 251 145 532 162 659 45 324 21
1083 -40 1249 -17 45 -38 62 -78 62 -37 0 -203 -158 -656 -621 -1064 -1088
-1290 -1330 -1290 -1383 0 -60 44 -59 187 3 258 112 471 241 678 408 132 107
198 153 219 153 20 0 78 -88 111 -167 40 -101 49 -185 50 -478 l0 -270 -36
-85 c-49 -118 -140 -261 -197 -309 -67 -58 -194 -118 -288 -137 -114 -23 -355
-23 -459 0 -125 27 -312 91 -414 141 -112 55 -196 108 -361 230 -144 106 -236
163 -315 195 -31 12 -54 26 -53 31 5 15 448 470 1338 1374 482 490 1086 1104
1342 1365 257 261 503 508 547 548 l81 73 1 -38 c1 -21 5 -207 8 -413 l6 -375
190 -143 c273 -204 455 -334 488 -346 36 -14 58 0 74 45 21 59 12 1759 -13
2493 -6 175 -9 201 -25 217 -18 18 -54 19 -976 17 -527 0 -1106 -5 -1287 -9z
m-1855 -5669 c17 -41 83 -182 146 -314 178 -371 222 -496 206 -578 -13 -70
-55 -128 -93 -128 -32 0 -146 135 -213 252 -28 48 -73 88 -100 88 -28 0 -76
-51 -114 -118 -48 -87 -125 -202 -151 -225 -26 -23 -46 -14 -96 45 -31 35 -36
49 -36 91 0 60 21 144 61 246 97 243 335 739 349 725 5 -5 23 -43 41 -84z"/>
<path d="M4061 8155 c-376 -43 -643 -107 -926 -220 -593 -238 -1090 -639
-1437 -1160 -114 -171 -224 -386 -291 -567 -53 -143 -131 -429 -147 -536 -21
-148 -30 -403 -20 -597 17 -309 39 -424 173 -891 98 -339 107 -384 114 -539 8
-201 -22 -316 -181 -690 -33 -77 -56 -145 -56 -166 0 -49 59 -136 153 -226 77
-73 123 -99 159 -89 31 7 133 107 399 391 327 349 349 374 349 401 0 34 -30
90 -89 167 -135 176 -184 313 -198 557 -6 116 10 329 32 412 23 88 55 165 89
215 53 78 50 78 181 -23 464 -357 562 -424 620 -424 15 0 45 10 66 22 22 12
170 161 331 332 398 421 488 514 1208 1251 1291 1321 1640 1685 1640 1714 0
77 -401 316 -800 478 -373 151 -974 233 -1369 188z"/>
<path d="M1614 1876 c-19 -9 -171 -167 -390 -407 -197 -217 -437 -479 -533
-584 -368 -401 -622 -695 -674 -777 -21 -34 -22 -72 -1 -92 21 -21 37 -20 87
5 133 68 296 193 751 574 511 426 934 804 1079 963 84 91 87 113 21 171 -77
68 -246 160 -294 160 -8 0 -29 -6 -46 -13z"/>
</g>
</svg>
