<?xml version="1.0" encoding="UTF-8"?>
<!-- Generated by Pixelmator Pro 3.7.1 -->
<svg width="391" height="380" viewBox="0 0 391 380" xmlns="http://www.w3.org/2000/svg">
    <path id="Path" fill="#ffffff" stroke="#ffffff" stroke-width="10" d="M 90.33638 71.637726 C 93.821739 72.111755 94.909424 73.304291 97.364014 75.796387 C 98.205078 76.637817 99.046143 77.479218 99.912689 78.34613 C 100.82193 79.281189 101.731171 80.216278 102.667969 81.179688 C 103.644684 82.166016 104.622551 83.151184 105.601471 84.135315 C 107.706718 86.256378 109.803955 88.384949 111.895416 90.519592 C 115.201988 93.893738 118.527512 97.248779 121.856201 100.601074 C 129.519882 108.324982 137.158295 116.0737 144.796646 123.822662 C 151.797363 130.92424 158.803253 138.020477 165.82962 145.09671 C 169.138794 148.430817 172.435394 151.776733 175.722931 155.132172 C 177.769379 157.215881 179.826111 159.289215 181.885773 161.359863 C 183.294861 162.782776 184.691284 164.21817 186.087311 165.65387 C 186.928375 166.495285 187.76944 167.3367 188.635986 168.203613 C 189.725494 169.309753 189.725494 169.309753 190.83699 170.438263 C 193.470001 172.339355 194.818939 172.460922 198 172 C 200.313797 170.330704 200.313797 170.330704 202.375 168 C 203.083984 167.257507 203.792969 166.514999 204.523438 165.75 C 205.854843 164.271591 207.181839 162.788849 208.480103 161.281235 C 212.905746 156.142776 217.554001 151.280533 222.334473 146.472656 C 223.538284 145.256592 223.538284 145.256592 224.766403 144.015945 C 227.39595 141.361786 230.029434 138.711609 232.664063 136.0625 C 233.567108 135.154129 234.470154 134.245773 235.400558 133.309875 C 239.1922 129.49707 242.984848 125.685272 246.781433 121.87738 C 252.203613 116.438904 257.617065 110.992035 263.018982 105.533417 C 267.290985 101.218109 271.576569 96.916504 275.867065 92.619598 C 277.687012 90.792908 279.502716 88.961975 281.314026 87.12674 C 283.839294 84.570068 286.379639 82.029449 288.924316 79.492188 C 290.045044 78.346863 290.045044 78.346863 291.188354 77.178406 C 291.883484 76.491608 292.578613 75.804779 293.29483 75.097168 C 293.893188 74.495483 294.491577 73.893799 295.108093 73.273895 C 297.578217 71.610657 299.08078 71.582672 302 72 C 303.605713 73.969788 304.689148 75.661163 305.875 77.875 C 306.433563 78.859558 306.433563 78.859558 307.003418 79.864014 C 307.860382 81.375519 308.709595 82.891418 309.552734 84.410645 C 311.732574 88.310669 313.983368 92.169006 316.225098 96.033691 C 318.169769 99.38974 320.105652 102.750732 322.039063 106.113281 C 325.852936 112.745911 329.675415 119.373535 333.5 126 C 337.263733 132.522293 341.026428 139.045135 344.785156 145.570313 C 350.830566 156.062332 356.892578 166.543945 363 177 C 363.561707 177.964218 364.123413 178.928436 364.702148 179.921875 C 367.492554 184.711777 370.29071 189.496674 373.112122 194.268372 C 374.512634 196.640991 375.905518 199.018082 377.297119 201.395996 C 378.288574 203.084244 379.289673 204.766815 380.291016 206.449219 C 380.892334 207.479187 381.493713 208.50914 382.113281 209.570313 C 382.647339 210.475403 383.181458 211.380478 383.731689 212.312988 C 385.922913 216.955307 386.387939 219.741989 384.854492 224.714844 C 384.267151 226.128815 383.663452 227.536041 383.046875 228.9375 C 382.719421 229.714859 382.392029 230.492218 382.054688 231.293137 C 380.966675 233.868088 379.858276 236.433731 378.75 239 C 377.984558 240.801804 377.220764 242.604309 376.458496 244.407471 C 375.252563 247.258957 374.045166 250.109802 372.832275 252.958328 C 369.751526 260.19516 366.731934 267.455627 363.742188 274.730469 C 363.098267 276.296814 363.098267 276.296814 362.441284 277.894806 C 360.752563 282.004578 359.065186 286.114868 357.378296 290.225342 C 356.204895 293.082092 355.028503 295.937653 353.851563 298.792969 C 353.505371 299.638123 353.15918 300.483276 352.802429 301.354065 C 351.885071 303.576965 350.947754 305.789917 350 308 C 349.508057 309.159271 349.016113 310.318542 348.509277 311.512939 C 347 314 347 314 344.8125 314.875 C 344.214355 314.91626 343.616272 314.95752 343 315 C 338.478088 308.486572 334.466003 301.745026 330.568085 294.842957 C 329.174927 292.376282 327.774231 289.91391 326.373962 287.451233 C 325.649231 286.176514 324.924866 284.90155 324.200867 283.626404 C 320.641388 277.359558 317.04361 271.115112 313.4375 264.875 C 312.205719 262.7435 310.973938 260.612 309.742188 258.480469 C 309.130859 257.422638 308.519531 256.364807 307.889648 255.274902 C 305.924622 251.869385 303.965515 248.460495 302.007813 245.050781 C 292.734436 228.887466 292.734436 228.887466 283 213 C 279.406677 214.256088 277.061462 215.568756 274.395264 218.277618 C 273.386108 219.291443 273.386108 219.291443 272.356537 220.325745 C 271.634308 221.06662 270.912079 221.80748 270.167969 222.570801 C 269.394989 223.351379 268.622009 224.131958 267.825592 224.936188 C 266.149963 226.629929 264.477722 228.327057 262.808502 230.02713 C 260.168091 232.715073 257.517609 235.392685 254.864014 238.067596 C 247.798859 245.192932 240.748856 252.333145 233.707993 259.482483 C 228.634598 264.633911 223.549942 269.773895 218.454254 274.90332 C 216.695145 276.67923 214.940872 278.459961 213.191498 280.245453 C 210.749527 282.737671 208.292725 285.214294 205.832031 287.687988 C 205.109802 288.432922 204.387573 289.177826 203.643463 289.945313 C 202.970673 290.61554 202.297913 291.285797 201.604736 291.976349 C 201.025894 292.563721 200.447052 293.151062 199.850662 293.756195 C 197.368393 295.4245 195.936569 295.437744 193 295 C 191.121582 293.781128 191.121582 293.781128 189.346268 292.053589 C 188.676575 291.413025 188.006897 290.772461 187.316925 290.112518 C 186.608826 289.410156 185.900711 288.707764 185.171143 287.984131 C 184.423035 287.260376 183.674927 286.536621 182.904175 285.790924 C 180.588348 283.541473 178.29184 281.273865 176 279 C 175.325256 278.334015 174.650528 277.66803 173.955353 276.981873 C 170.040833 273.112976 166.156998 269.214661 162.287109 265.301147 C 160.191895 263.18335 158.092255 261.070007 155.991409 258.957764 C 150.034149 252.967377 144.081757 246.972198 138.138916 240.967529 C 134.468811 237.259857 130.791489 233.559464 127.109383 229.863693 C 125.717133 228.463394 124.327652 227.060318 122.941048 225.654419 C 121.01786 223.704865 119.08567 221.764679 117.151123 219.826416 C 116.584412 219.247345 116.0177 218.668289 115.433823 218.071671 C 112.6856 215.337402 110.808418 213.720764 107 213 C 102.397797 219.632767 98.388855 226.492615 94.5 233.5625 C 89.798859 242.03418 85.028633 250.456345 80.125 258.8125 C 75.269104 267.087708 70.476097 275.395416 65.729553 283.733582 C 63.410599 287.803589 61.081535 291.867859 58.753418 295.932617 C 57.660133 297.845184 56.570049 299.759583 55.484863 301.676758 C 54.251484 303.853943 53.003757 306.022034 51.75 308.1875 C 51.105469 309.31543 50.460938 310.443359 49.796875 311.605469 C 48 314 48 314 45.765625 314.863281 C 45.182968 314.908386 44.600311 314.953522 44 315 C 41.226273 310.708069 39.309467 306.234131 37.375 301.527344 C 37.031582 300.699951 36.68816 299.872559 36.334335 299.020081 C 35.218594 296.327637 34.109047 293.63269 33 290.9375 C 32.229961 289.074036 31.459858 287.210571 30.689697 285.347168 C 25.884521 273.697388 21.177116 262.014893 16.637695 250.258789 C 14.691696 245.231995 12.701363 240.246048 10.519531 235.316406 C 10.134827 234.442261 9.750122 233.568115 9.35376 232.66748 C 8.649597 231.085342 7.931404 229.509323 7.195068 227.941895 C 5.077499 223.188354 4.46312 220.164124 6 215 C 8.00441 210.79657 10.298073 206.781891 12.625 202.75 C 13.304459 201.554276 13.982735 200.357895 14.659912 199.160889 C 16.067276 196.674911 17.479645 194.191864 18.89502 191.710449 C 21.542641 187.057327 24.122719 182.36792 26.706299 177.678955 C 32.551392 167.07814 38.531174 156.567047 44.6604 146.128174 C 49.165699 138.451797 53.594532 130.733856 58 123 C 64.766876 111.129028 71.587486 99.291199 78.526855 87.52002 C 79.864319 85.232086 81.173386 82.930847 82.472656 80.621094 C 83.168839 79.413818 83.86541 78.206757 84.5625 77 C 85.120667 76.01001 85.678825 75.019989 86.253906 74 C 88 72 88 72 90.33638 71.637726 Z M 95 122 C 93.527306 123.482788 93.527306 123.482788 92.421875 125.542969 C 91.983597 126.287399 91.545311 127.03183 91.09375 127.798828 C 90.650314 128.587097 90.206879 129.375351 89.75 130.1875 C 89.291092 130.956421 88.832184 131.725357 88.359375 132.517578 C 85.242035 137.891998 85.242035 137.891998 85 144 C 86.66983 146.423157 86.66983 146.423157 89.066452 148.70137 C 89.967957 149.616974 90.869461 150.532578 91.798279 151.475922 C 92.810173 152.478088 93.822327 153.480011 94.834717 154.481689 C 95.89167 155.54541 96.947556 156.610199 98.002457 157.67598 C 100.871216 160.567551 103.755592 163.443054 106.643684 166.315308 C 109.662422 169.321411 112.668953 172.339661 115.677444 175.356003 C 120.731972 180.419632 125.796951 185.472626 130.86792 190.519775 C 136.732666 196.357315 142.579193 202.212646 148.416565 208.077545 C 153.426514 213.110184 158.446136 218.133026 163.473999 223.147797 C 166.477936 226.143936 169.478394 229.143372 172.470184 232.151672 C 175.283295 234.979218 178.108337 237.794266 180.943115 240.600113 C 181.982239 241.632629 183.01712 242.669434 184.047424 243.710754 C 185.452942 245.129883 186.875366 246.532211 188.29863 247.933548 C 189.090454 248.72348 189.882263 249.513412 190.69809 250.327286 C 192.879425 252.156204 192.879425 252.156204 195.502792 252.505936 C 198.884735 251.820755 200.221725 250.404633 202.656677 247.971512 C 203.562424 247.07843 204.46817 246.185333 205.401352 245.265182 C 206.392487 244.262726 207.383362 243.260025 208.374023 242.25708 C 209.42627 241.209976 210.479584 240.16394 211.53389 239.118896 C 214.39444 236.276886 217.239014 233.419342 220.080444 230.558243 C 223.055084 227.567245 226.042282 224.588837 229.027649 221.608566 C 234.03981 216.600922 239.041687 211.583176 244.037598 206.559326 C 249.814178 200.750702 255.606613 194.958267 261.407867 189.174286 C 266.986633 183.611374 272.554047 178.037231 278.116333 172.457855 C 280.484253 170.083069 282.856079 167.71228 285.23114 165.344604 C 288.027771 162.555634 290.814331 159.756958 293.593384 156.9505 C 294.615112 155.921921 295.640198 154.896729 296.668915 153.875198 C 298.072266 152.480515 299.462158 151.072281 300.851257 149.663406 C 301.632874 148.878967 302.414551 148.094513 303.219849 147.286301 C 305.18042 144.768311 305.731445 143.155273 306 140 C 305.380981 138.042831 305.380981 138.042831 304.199219 136.300781 C 303.79895 135.64917 303.398712 134.997543 302.986328 134.326172 C 302.343414 133.329407 302.343414 133.329407 301.6875 132.3125 C 301.270508 131.636383 300.853455 130.960266 300.423828 130.263672 C 298.774841 127.62059 297.209351 125.209335 295 123 C 291.627258 123.326752 289.949432 124.679596 287.611633 127.034332 C 286.961395 127.6819 286.311157 128.329453 285.641205 128.996643 C 284.938782 129.711411 284.236389 130.426178 283.512695 131.162598 C 282.764191 131.912277 282.015686 132.661957 281.244476 133.434357 C 278.76532 135.9207 276.296875 138.417389 273.828125 140.914063 C 272.10495 142.64537 270.381042 144.375946 268.656433 146.105804 C 264.10907 150.670288 259.570374 155.243256 255.033813 159.818481 C 247.788971 167.122406 240.531601 174.413895 233.273453 181.704605 C 230.744888 184.24707 228.220215 186.79335 225.696106 189.34024 C 224.132446 190.913925 222.56871 192.487518 221.004883 194.061035 C 220.310577 194.763657 219.616257 195.466278 218.900909 196.190186 C 214.963455 200.145264 210.917969 203.902649 206.677246 207.531555 C 204.154175 209.740524 201.95813 212.208572 199.738281 214.714844 C 197.329834 216.495468 195.949417 216.337601 193 216 C 190.927902 214.531967 190.927902 214.531967 188.85704 212.431396 C 188.065018 211.640472 187.272995 210.849533 186.45697 210.034637 C 185.602264 209.15567 184.747559 208.276703 183.866943 207.371094 C 182.500229 205.995834 182.500229 205.995834 181.105911 204.592804 C 179.125 202.599487 177.152191 200.598618 175.185196 198.591583 C 172.075897 195.419479 168.948181 192.265976 165.81752 189.11499 C 159.740952 182.993973 153.682816 176.854919 147.627075 170.713303 C 139.916412 162.894318 132.199615 155.081512 124.462097 147.289093 C 121.350258 144.15387 118.248825 141.008789 115.155022 137.855759 C 113.693504 136.369202 112.227516 134.887222 110.759384 133.407196 C 108.96772 131.600861 107.183319 129.787277 105.407501 127.965363 C 104.618301 127.174438 103.829094 126.383499 103.015976 125.568604 C 102.33297 124.875412 101.649963 124.18222 100.946259 123.468018 C 98.874069 121.598541 98.874069 121.598541 95 122 Z M 67 172 C 63.761906 174.96521 61.733017 177.917664 59.644531 181.769531 C 59.02594 182.899231 58.407356 184.028931 57.77002 185.192871 C 57.117439 186.399384 56.464935 187.605927 55.8125 188.8125 C 54.476681 191.261322 53.135689 193.707291 51.792969 196.152344 C 51.465347 196.749924 51.137722 197.347504 50.800171 197.963196 C 47.572247 203.826111 44.110508 209.521545 40.539063 215.179688 C 38.543972 218.835663 37.604351 221.442551 38.64917 225.55542 C 39.814835 228.439178 40.982349 231.319946 42.1875 234.1875 C 42.587753 235.197479 42.988007 236.207458 43.400391 237.248047 C 43.798065 238.211624 44.195744 239.175201 44.605469 240.167969 C 44.967937 241.047348 45.330406 241.926727 45.703857 242.832764 C 47.186966 245.312622 48.334171 245.994385 51 247 C 55.909206 239.977158 60.081497 232.639099 64.1875 225.125 C 65.502464 222.726349 66.820366 220.32933 68.140625 217.933594 C 68.466354 217.342285 68.792076 216.750977 69.12767 216.141739 C 71.163498 212.463058 73.262428 208.830002 75.421875 205.222656 C 75.934677 204.363342 76.447487 203.504013 76.97583 202.618652 C 77.922981 201.043289 78.880547 199.474121 79.850342 197.912598 C 83.196381 192.343842 83.196381 192.343842 83 186 C 81.165489 183.428223 78.99305 181.336243 76.6875 179.1875 C 76.092598 178.602905 75.497696 178.018311 74.884766 177.416016 C 71.393066 174.018829 71.393066 174.018829 67 172 Z M 314.25 179.1875 C 313.660889 179.778534 313.071777 180.369568 312.464844 180.978516 C 308.547913 184.858994 308.547913 184.858994 307 190 C 307.733185 192.175293 307.733185 192.175293 309.035156 194.359375 C 309.508087 195.216278 309.981018 196.073181 310.468262 196.956055 C 310.994354 197.878052 311.520447 198.800049 312.0625 199.75 C 312.598907 200.710678 313.135315 201.671341 313.687988 202.661133 C 319.458496 212.941559 325.367279 223.151306 331.401367 233.279297 C 332.497498 235.144775 333.564575 237.027527 334.606445 238.923828 C 335.120453 239.841003 335.63446 240.758163 336.164063 241.703125 C 336.614746 242.529739 337.06543 243.356354 337.529785 244.208008 C 338.014954 244.799362 338.500122 245.390717 339 246 C 340.320007 246 341.640015 246 343 246 C 344.518066 242.632843 346.011108 239.255157 347.5 235.875 C 347.92926 234.923676 348.358521 233.972351 348.800781 232.992188 C 349.206848 232.064056 349.612915 231.135941 350.03125 230.179688 C 350.408325 229.331329 350.785339 228.482956 351.173828 227.608887 C 352.523682 223.346237 352.53064 220.268326 350.797607 216.125977 C 350.239197 215.140808 349.680786 214.15564 349.105469 213.140625 C 348.484619 212.032516 347.86377 210.924408 347.224121 209.782715 C 346.546082 208.60466 345.867188 207.427109 345.1875 206.25 C 344.500244 205.042816 343.813538 203.835281 343.127441 202.627441 C 341.751404 200.213211 340.365723 197.804947 338.971191 195.401367 C 337.736603 193.271042 336.508636 191.136856 335.290527 188.99707 C 333.837097 186.445068 332.361969 183.907562 330.875 181.375 C 330.451141 180.630249 330.027283 179.885498 329.590576 179.118164 C 327.894714 176.301056 326.508423 174.287537 323.617188 172.652344 C 319.318298 173.223389 317.130554 176.122467 314.25 179.1875 Z"/>
    <path id="path1" fill="#ffffff" stroke="#ffffff" stroke-width="10" stroke-linecap="round" stroke-linejoin="round" d="M 196.20459 5.034912 C 200.373154 6.47406 202.726944 9.291321 205.726563 12.441406 C 206.356064 13.083679 206.98555 13.725952 207.634125 14.387695 C 209.6409 16.436646 211.634003 18.498199 213.625 20.5625 C 215.624008 22.629425 217.625839 24.693207 219.637299 26.748047 C 220.888 28.026093 222.131439 29.31131 223.366852 30.604126 C 224.854782 32.126709 226.421707 33.57132 228 35 C 228.990005 35 229.979996 35 231 35 C 231.330002 25.76001 231.660004 16.519989 232 7 C 234.475006 6.505005 234.475006 6.505005 237 6 C 239.252609 7.70105 241.000336 9.276001 242.921875 11.300781 C 243.740051 12.128143 243.740051 12.128143 244.574768 12.972229 C 246.314346 14.738739 248.031708 16.525269 249.75 18.3125 C 250.921844 19.505859 252.095001 20.697937 253.269531 21.888672 C 263.09668 31.909241 263.09668 31.909241 263.210938 38.636719 C 263.239288 39.771729 263.267639 40.906769 263.296875 42.076172 C 263.348541 44.46405 263.392944 46.852081 263.429688 49.240234 C 263.518219 56.335815 263.518219 56.335815 265.601563 63.019531 C 267.265991 66.566864 267.301849 67.359833 266 71 C 264.114136 73.476135 261.93335 75.623169 259.723633 77.809814 C 258.740601 78.805786 258.740601 78.805786 257.737701 79.821838 C 255.569611 82.012634 253.387115 84.188354 251.203125 86.363281 C 249.691437 87.880188 248.180283 89.397644 246.669617 90.915588 C 243.501862 94.09375 240.326736 97.264282 237.146484 100.429932 C 233.067719 104.491486 229.009674 108.573059 224.957138 112.660767 C 221.841614 115.798218 218.714493 118.92395 215.583832 122.046326 C 214.082474 123.546844 212.584976 125.051239 211.0914 126.559509 C 209.004028 128.664276 206.901382 130.752502 204.793945 132.837158 C 204.177643 133.465149 203.56134 134.093155 202.926361 134.740173 C 200.509537 137.10405 198.758118 138.766693 195.5 139.769363 C 191.486679 138.534286 189.106918 135.801529 186.206055 132.853027 C 185.543686 132.199432 184.881317 131.545807 184.198883 130.872406 C 182.010452 128.706009 179.840851 126.52179 177.671875 124.335938 C 176.157578 122.825012 174.642532 121.314819 173.12677 119.805328 C 169.951309 116.637238 166.78508 113.460266 163.625 110.276855 C 159.574188 106.197571 155.501373 102.141113 151.421371 98.091095 C 148.287933 94.975708 145.166504 91.848511 142.048553 88.717651 C 140.551514 87.217255 139.050751 85.720581 137.546234 84.227722 C 135.443939 82.138123 133.358337 80.033142 131.276367 77.92334 C 130.651978 77.309052 130.027557 76.694794 129.384247 76.06189 C 125.960281 72.552673 124.035149 70.145874 124 65 C 124.748627 63.36908 125.500771 61.739502 126.283203 60.124512 C 128.150711 54.589417 127.305099 48.02298 127.175781 42.248047 C 127.221123 36.868347 127.341667 33.021057 130.945313 28.84375 C 132.279129 27.544037 133.632294 26.264008 135 25 C 136.560669 23.348083 138.115051 21.690186 139.664063 20.027344 C 141.314911 18.328003 142.968597 16.631439 144.625 14.9375 C 145.457733 14.05899 146.290466 13.180511 147.148438 12.275391 C 147.957977 11.45105 148.767502 10.626678 149.601563 9.777344 C 150.689453 8.651886 150.689453 8.651886 151.799316 7.503662 C 152.525543 7.007446 153.25177 6.51123 154 6 C 156.475006 6.494995 156.475006 6.494995 159 7 C 159.330002 16.23999 159.660004 25.480011 160 35 C 164.142181 33.967163 164.142181 33.967163 166.992676 31.332031 C 167.546494 30.77475 168.100327 30.217468 168.670929 29.643311 C 169.25647 29.039154 169.842026 28.434967 170.445313 27.8125 C 171.056396 27.194794 171.66748 26.577087 172.297089 25.940674 C 174.246948 23.967407 176.186371 21.984283 178.125 20 C 180.072479 18.017487 182.022064 16.037109 183.974335 14.059326 C 185.1884 12.828247 186.399384 11.594116 187.606964 10.356689 C 192.887161 4.982391 192.887161 4.982391 196.20459 5.034912 Z M 188.136719 54.199219 C 186.807373 55.51889 186.807373 55.51889 185.451172 56.865234 C 184.08316 58.262268 184.08316 58.262268 182.6875 59.6875 C 181.756149 60.599518 180.824799 61.511536 179.865234 62.451172 C 178.985443 63.337402 178.105667 64.223633 177.199219 65.136719 C 176.393158 65.948425 175.587082 66.760132 174.756592 67.596436 C 172.851044 69.85788 172.851044 69.85788 172.475098 72.497803 C 173.615143 77.932343 178.864075 81.612427 182.6875 85.375 C 183.599518 86.314728 184.51152 87.254456 185.451172 88.222656 C 186.337402 89.105652 187.223633 89.988678 188.136719 90.898438 C 189.354279 92.115387 189.354279 92.115387 190.596436 93.356934 C 192.858459 95.230103 192.858459 95.230103 195.497803 95.024902 C 200.761383 92.868927 204.429306 88.22345 208.375 84.25 C 209.314728 83.342499 210.254456 82.434998 211.222656 81.5 C 212.105667 80.618286 212.988678 79.736572 213.898438 78.828125 C 214.709747 78.022766 215.521042 77.217438 216.356934 76.387695 C 218.235123 74.138245 218.235123 74.138245 218.01123 71.488525 C 215.954697 66.427612 211.576859 62.966461 207.75 59.1875 C 206.890198 58.303833 206.030396 57.420197 205.144531 56.509766 C 204.307922 55.67511 203.471329 54.840424 202.609375 53.980469 C 201.845932 53.216309 201.082474 52.452118 200.295898 51.664795 C 198.120758 49.847137 198.120758 49.847137 195.515869 49.48877 C 192.06044 50.190918 190.628464 51.724792 188.136719 54.199219 Z"/>
    <path id="path2" fill="#ffffff" stroke="#ffffff" stroke-width="10" d="M 130 267 C 134.265594 269.287689 137.468903 272.223816 140.8125 275.664795 C 141.370911 276.230957 141.929306 276.797089 142.504639 277.380371 C 143.710983 278.604309 144.915085 279.830444 146.117188 281.058563 C 148.020218 283.001099 149.930771 284.935974 151.84375 286.868713 C 157.279755 292.362671 162.705811 297.866302 168.117188 303.384521 C 171.432053 306.763733 174.758926 310.130737 178.09375 313.490265 C 179.361511 314.772278 180.624573 316.05896 181.882813 317.350342 C 183.639771 319.152893 185.41156 320.939545 187.1875 322.723389 C 187.962265 323.529846 187.962265 323.529846 188.752686 324.35257 C 190.891205 326.473602 192.555939 327.879547 195.488525 328.675018 C 199.245483 327.665253 201.39209 325.213623 203.996094 322.476318 C 204.574005 321.889496 205.151917 321.302673 205.747345 320.698059 C 206.999664 319.423401 208.246201 318.143005 209.487579 316.857666 C 211.451584 314.825256 213.431168 312.809296 215.415771 310.796997 C 220.340332 305.797577 225.239273 300.773315 230.134399 295.745056 C 234.272552 291.495239 238.422211 287.257416 242.589386 283.036041 C 244.543091 281.047119 246.478363 279.041321 248.413818 277.034668 C 249.609589 275.820282 250.806244 274.606781 252.003906 273.394287 C 252.806732 272.547333 252.806732 272.547333 253.625763 271.683258 C 255.154541 270.157593 255.154541 270.157593 258 268 C 260.874756 268.162842 260.874756 268.162842 263 269 C 263.174011 274.265137 263.300507 279.528564 263.384521 284.795898 C 263.419556 286.584595 263.467224 288.373108 263.528076 290.161133 C 263.613708 292.743347 263.652832 295.322876 263.683594 297.90625 C 263.719727 298.696167 263.755859 299.486084 263.793091 300.299927 C 263.796997 305.938232 262.251465 308.713867 258.35083 312.708893 C 257.575043 313.464966 256.799286 314.221008 256 315 C 255.04837 315.972168 254.099564 316.947083 253.152969 317.924164 C 249.720169 321.455688 246.246704 324.945831 242.769531 328.433594 C 242.141052 329.064911 241.512573 329.696198 240.865051 330.346649 C 237.54985 333.676727 234.231857 337.004028 230.911377 340.328857 C 227.484848 343.760925 224.067719 347.202148 220.652618 350.645569 C 218.017975 353.298828 215.376678 355.945343 212.73349 358.590088 C 211.46991 359.856689 210.208832 361.125793 208.950317 362.39743 C 207.196274 364.168488 205.43306 365.929901 203.667236 367.689209 C 203.150269 368.215393 202.633301 368.741577 202.100677 369.283691 C 197.315781 374.013458 197.315781 374.013458 194 374 C 192.216568 372.918945 192.216568 372.918945 190.38501 371.189209 C 189.686676 370.537109 188.988327 369.884979 188.268829 369.213104 C 187.520111 368.482788 186.771393 367.752441 186 367 C 185.221405 366.246704 184.442795 365.493439 183.640594 364.717316 C 181.021591 362.154022 178.428223 359.566864 175.839844 356.972656 C 174.881699 356.015198 173.923416 355.057861 172.964981 354.100708 C 170.969086 352.106262 168.974991 350.110046 166.982178 348.112549 C 164.448578 345.573242 161.910522 343.038483 159.371094 340.505035 C 157.395096 338.532684 155.421524 336.557922 153.448639 334.582458 C 152.065887 333.19873 150.681152 331.816986 149.296371 330.435303 C 144.873474 325.996094 140.588211 321.516296 136.559814 316.713989 C 134.86824 314.855225 133.030762 313.313202 131.097656 311.710938 C 125.962593 305.836121 127.15168 297.613159 127.362061 290.270996 C 127.437897 287.610992 127.464554 284.953949 127.482422 282.292969 C 127.504997 280.604126 127.530289 278.915314 127.558594 277.226563 C 127.570229 276.430786 127.581871 275.63501 127.593857 274.815094 C 127.764259 269.235748 127.764259 269.235748 130 267 Z"/>
</svg>
