<?xml version="1.0" encoding="UTF-8"?>
<!-- Generated by Pixelmator Pro 3.7.1 -->
<svg width="519" height="546" viewBox="0 0 519 546" xmlns="http://www.w3.org/2000/svg">
    <path id="Shape" fill="#ffffff" fill-rule="evenodd" stroke="none" d="M 183.5 401.5 C 183.145325 511.783142 182.7052 535.779053 181.997742 538.244202 C 181.259155 540.817749 179.965118 542.483826 177.858795 543.572998 C 175.177612 544.959534 166.522217 545.209106 108.647194 545.568787 C 66.062386 545.833435 41.364723 545.622864 39.312912 544.977661 C 37.560017 544.426453 35.229759 542.836243 34.134563 541.44397 C 33.039368 540.051636 31.588392 536.794678 30.910173 534.206238 C 29.972456 530.627441 29.582329 497.648956 29.281654 396.543152 C 28.924088 276.306396 29.039785 263.184357 30.490997 259.384399 C 31.682411 256.26474 33.04538 254.731812 35.782753 253.432861 C 38.541359 252.12381 43.754272 251.464661 56.484886 250.815155 C 65.843201 250.337677 125.925003 249.609375 190 249.196655 C 306.5 248.446259 306.5 248.446259 313.295654 245.063354 C 317.779877 242.831116 321.832153 239.779053 325.20932 236.09024 C 328.024231 233.015594 331.716187 227.575012 333.413666 224 C 336.451172 217.602844 336.5 217.253967 336.5 201.948151 C 336.5 186.396271 336.5 186.396271 332.705994 178.719604 C 330.587097 174.432343 326.834167 168.936218 324.205994 166.271454 C 321.617706 163.647156 316.885651 160.195251 313.690308 158.600555 C 309.638306 156.578339 305.402649 155.43515 299.690308 154.82196 C 295.185638 154.338409 257.299988 153.708954 215.5 153.423218 C 155.2285 153.0112 138.87149 152.627563 136.463013 151.56958 C 134.792679 150.835846 118.865677 135.445038 101.069695 117.367767 C 83.273705 99.290497 54.7883 70.154022 37.768791 52.620026 C 20.749279 35.086029 5.513774 18.93103 3.912112 16.719971 C 2.075514 14.184631 1 11.462708 1 9.349976 C 1 7.365356 1.792421 5.207581 2.944223 4.055786 C 4.013546 2.98645 6.601046 1.748962 8.694223 1.305786 C 10.7874 0.86261 79.557068 0.5 161.515701 0.5 C 310.531403 0.5 310.531403 0.5 322.515717 2.711182 C 329.107056 3.927307 339 6.230164 344.5 7.828552 C 350 9.427002 358.325012 12.290283 363 14.191467 C 367.674988 16.092712 376.178223 20.052856 381.896027 22.991882 C 387.613831 25.930847 396.163818 30.890686 400.896027 34.013672 C 405.628204 37.136688 413.100006 42.620087 417.5 46.199005 C 421.899994 49.777893 430.05072 57.439392 435.612732 63.224518 C 441.752167 69.610229 448.985077 78.606476 454.021698 86.12146 C 458.584625 92.929657 464.910065 103.899994 468.078247 110.5 C 471.246429 117.100006 475.502014 127 477.535065 132.5 C 479.568146 138 482.785522 149.924988 484.684814 159 C 487.444489 172.186066 488.254425 178.704498 488.717407 191.455109 C 489.051544 200.657104 488.818542 212.296722 488.16687 218.955109 C 487.54541 225.30481 485.855164 236.333191 484.410767 243.462646 C 482.96637 250.592102 480.218842 260.942078 478.305115 266.462646 C 476.391388 271.983185 472.243286 281.913116 469.087097 288.529175 C 465.930908 295.145203 460.622131 304.613098 457.289856 309.568939 C 453.95755 314.52478 448.907623 321.486633 446.06778 325.039795 C 443.227936 328.592896 437.438446 335.031555 433.202209 339.34787 C 428.966003 343.664185 422.350006 349.707611 418.5 352.777679 C 414.649994 355.847748 410.079071 359.741211 408.342407 361.42981 C 405.902771 363.80191 405.369904 364.954773 405.998901 366.5 C 406.446655 367.600006 414.617554 380.005859 424.156494 394.068604 C 433.695435 408.131348 447.930695 429.056366 455.790405 440.568604 C 463.650116 452.080872 478.124359 473.649994 487.955414 488.5 C 497.786438 503.350006 508.568237 519.458984 511.915009 524.297729 C 516.454895 530.861511 518 533.962158 518 536.508789 C 518 538.711914 517.239014 540.631042 515.853638 541.921692 C 514.673157 543.021484 511.860657 544.165833 509.603638 544.464661 C 507.346649 544.763489 470.27243 545.071594 427.216522 545.149292 C 373.145416 545.246826 348.202057 544.957458 346.56958 544.213684 C 345.067596 543.529297 327.541504 518.235352 298.48587 474.81839 C 273.339752 437.243286 251.565765 405.256042 250.099243 403.735657 C 247.432861 400.971313 247.432861 400.971313 215.466431 401.235657 L 183.5 401.5 Z"/>
</svg>
